<?xml version="1.0" encoding="UTF-8"?>
<svg id="Layer_2" data-name="Layer 2" xmlns="http://www.w3.org/2000/svg" viewBox="0 0 771.12 166.03">
  <defs>
    <style>
      .cls-1 {
        fill: #009ca6;
        strokeWidth: 0px;
      }
    </style>
  </defs>
  <g id="Layer_1-2" data-name="Layer 1">
    <g>
      <path class="cls-1" d="m61.13,8.29C43.19,26.36,25.48,44.67,7.23,62.43c-8.49,8.27-10.07,26.99-1.71,36.01,2.92,3.15,6.04,6.12,9.09,9.16,11.57,11.51,37.11,35.04,37.11,35.04l15.13-15.13s-24.32-25.12-34.98-35.76c-6.12-6.11-6.58-13.82-.7-19.89,12.61-13,25.4-25.83,38.32-38.52,5.79-5.69,15.21-5.72,21.02-.09,13.4,12.97,26.83,25.93,39.73,39.39,6.23,6.5,6.11,13.41-.31,19.74-.19.19-.38.38-.57.57-20.67,20.68-72.52,72.66-72.52,72.66,7.71.05,24.36.24,32.07.41,0,0,43.7-43.31,64.41-64.2,1.13-1.14,2.24-2.33,3.19-3.62,3.88-5.24,4.82-10.99,4.17-17.52-.67-6.77-2.77-12.44-7.6-17.24-18.51-18.4-36.94-36.88-55.43-55.29-5.46-5.44-11.83-8.15-18.2-8.15s-12.86,2.77-18.34,8.29"/>
      <path class="cls-1" d="m74.51,107.72c-2.31-4.12-3.02-9.31-2.3-13.73,1.15-7.04,4.62-12.96,9.72-17.84,6.45-6.18,11.03-13.35,13.31-22.27.16,2.15.67,4.35.4,6.45-.72,5.62-3.1,10.57-6.68,15-4.18,5.16-8.47,10.45-9.4,17.26-.21,1.57-.09,4.48-.15,6.05-.04.92-.01,2-.39,2.93-.91,2.24-2.36,3.87-4.51,6.14"/>
      <path class="cls-1" d="m65.6,112.13c1.75-.63,3.46-1.14,5.1-1.84,7.14-3.06,10.66-10.11,10.26-17.86-.19-3.69,1.37-6.49,3.22-9.41,5.66,6.59,6.52,21.23,1.14,27.58-.73.86-2.2,1.53-3.38,1.56-5.28,0-10.79-.02-16.34-.02"/>
      <path class="cls-1" d="m79.02,78.13c-.7.92-1.65,2.17-2.61,3.43-7.22-6.59-13.39-19.65-10.54-27.18,1.47,3.76,2.62,8.09,4.79,11.85,2.19,3.79,5.39,8.17,8.36,11.9"/>
      <path class="cls-1" d="m80.46,56.1c3.19.04,5.33,2.21,5.31,5.4-.02,3.13-2.28,5.36-5.43,5.36-3.08,0-5.52-2.35-5.58-5.35-.06-3.05,2.47-5.44,5.71-5.4"/>
      <path class="cls-1" d="m82.79,112.15c2.3-.25,3.42-2.18,3.93-3.1,2.82,1.84,4.14,2.28,9.01,3.1h-12.93Z"/>
      <path class="cls-1" d="m770.98,63.34c-5.38-13.44-10.77-26.87-16.13-40.31-.13-.32-.29-.44-.65-.44-2.63.01-5.26.01-7.9,0-.36,0-.51.13-.63.45-5.06,12.98-10.11,25.98-15.18,38.96-.23.59-.46,1.18-.68,1.78.12.01.19.03.25.03,2.74,0,5.47,0,8.21.01.35,0,.43-.17.53-.44,1.01-2.84,2.05-5.67,3.07-8.5.12-.32.25-.47.63-.47,5.18.01,10.37.01,15.54,0,.37,0,.52.13.64.46,1.08,2.84,2.18,5.66,3.23,8.48.13.36.31.47.69.47,2.32-.03,4.66-.01,6.99-.01h1.53c-.07-.19-.09-.34-.15-.47m-26.41-15.85c1.85-5.08,3.69-10.13,5.59-15.3,1.89,5.16,3.76,10.21,5.64,15.3h-11.23Zm17.34,67.29c-1.71.41-3.58,1.36-5.62,2.83-2.27,1.66-4.17,3.6-5.74,5.84-1.15,1.66-2.41,2.95-3.82,3.86-1.8,1.18-44.2,1.76-46.51,1.76h-3.18v-3.02c0-3.36-.81-5.98-2.44-7.83-1.76-2.02-4.38-3.02-7.83-3.02-2.24,0-4.31.32-6.19.95-1.68.56-3.55,1.51-5.62,2.83-.82.51-3.04,2.07-6.69,4.66-2.24,1.61-4.68,3.88-8.02,3.97l-1.21-1.07c-1.56-1.88-2.78-4.56-3.67-8.02l-1.57,2.28c.19.89.32,1.72.41,2.47.08.76.13,1.49.13,2.24,0,1.75-.75,2.92-2.21,3.51-.89.36-2.38.53-4.44.53h-38.73c-3.87-.51-6.39-3.71-7.1-4.35-3.98-3.56-6.84-5.99-8.61-7.26-3.54-2.55-6.61-3.81-9.21-3.81s-4.83.83-6.56,2.48c-1.2,1.15-2.16,2.66-2.91,4.55,1.32-.19,2.64-.28,3.94-.28,2.12,0,4.2.36,6.27,1.08,1.83.63,3.86,1.65,6.07,3.05,1.79,1.12,3.98,2.68,6.56,4.7h-74.73c-.84,0-1.67-1.32-2.46-3.98-.51-1.74-1.08-4.4-1.71-8.02l-1.15-6.58c-.36-1.57-.68-3.11-.95-4.58-.27-1.48-.52-3-.77-4.59-.8.92-1.43,1.81-1.91,2.68-.59,1.07-.88,2.03-.88,2.9,0,.21.08.75.24,1.6.17.87.28,1.4.33,1.61-4.28,1.99-7.85,4.31-10.7,6.97-2.85,2.67-4.28,5.1-4.28,7.28,0,.6.97,1.11,2.92,1.51,1.95.39,4.39.59,7.32.59,1.29,0,2.54-.4,3.7-1.19,1.17-.79,2.15-1.9,2.91-3.32.64,3.69,1.48,6.71,2.52,9.06,1.4,3.13,3.02,4.7,4.86,4.7h125.54v-.18c2.08-.01,3.6-.17,4.59-.49,1.07-.35,2.13-.98,3.22-1.9,1.27.79,2.38,1.36,3.32,1.72.24.09.24.15.09.19h40.88c2.96,0,45.54-.35,47.07-1.04,1.55-.71,3.06-1.96,4.52-3.77,1.89,1.56,4.07,2.79,6.54,3.67,2.13.77,4.06,1.15,5.76,1.15h3.98v-6.64c0-1.8-.69-4.16-2.1-7.07-1.05-2.14-2.46-4.54-4.2-7.22m-251.45,6.92c-1.24,0-2.23-.07-2.94-.2-.72-.12-1.34-.31-1.87-.54.85-1.4,1.93-2.52,3.2-3.38,1.28-.85,3.02-1.68,5.23-2.47l.73,4.16c-1.37,1.6-2.83,2.41-4.36,2.41m178.46,6.64c-1.27.48-3.3.72-6.07.72h-17.61c2.85-1.46,5.71-2.91,8.59-4.35,3.62-1.71,6.7-2.56,9.25-2.56,2.07,0,3.87.35,5.43,1.05,1.55.69,2.32,1.67,2.32,2.92,0,.99-.63,1.72-1.91,2.21m74.56.35c-1.48-.19-3.04-.67-4.72-1.46-1.66-.8-2.95-1.68-3.87-2.68.76-1.27,1.43-2.17,1.99-2.71.84-.84,1.87-1.41,3.1-1.72.96,1.27,1.74,2.51,2.32,3.71.69,1.43,1.2,2.88,1.53,4.35l-.35.51Zm-69.88-97c.09.12.15.24.17.36,1.8,7.18,3.6,14.36,5.42,21.55.81,3.27,1.65,6.54,2.45,9.82.08.31.2.4.51.4.57-.03,1.16-.01,1.75-.01h5.88c2.68-10.7,5.38-21.39,8.06-32.08.04,0,.09.01.13.01v32.04h7.67V22.63c-.09-.01-.15-.03-.21-.03-3.96,0-7.94,0-11.9-.01-.36,0-.4.18-.47.44-1.76,6.72-3.52,13.45-5.28,20.17-.64,2.46-1.28,4.9-1.96,7.45-.09-.29-.16-.47-.2-.67-2.39-8.93-4.78-17.86-7.14-26.8-.12-.46-.29-.6-.76-.59-3.75.01-7.5.01-11.25.01h-.59v41.18h7.71V31.69Zm-42.15,14.13h16.32v17.95h8.33V22.63h-8.35v16.16h-16.3v-16.17h-8.26v41.16h8.27v-17.96Zm8.01,89.89h-2.6c-1.11,0,1.99.17,2.6,0m-56.28-71.89c.37,0,.53-.12.65-.48,1-2.83,2.04-5.63,3.05-8.46.12-.36.29-.47.67-.47,5.15.01,10.3.01,15.45,0,.4,0,.57.12.71.49,1.07,2.84,2.17,5.66,3.24,8.49.12.32.27.43.6.43,2.72-.01,5.43-.01,8.15-.01h.46c-.07-.2-.12-.36-.19-.51-5.36-13.4-10.73-26.8-16.08-40.22-.15-.36-.31-.51-.72-.49-2.6.01-5.19.01-7.79,0-.41-.01-.57.12-.71.49-5.19,13.33-10.38,26.66-15.58,39.99-.08.23-.17.45-.28.74h.51c2.62,0,5.25,0,7.86.01m12.01-31.64c1.89,5.16,3.76,10.19,5.64,15.28h-11.23c1.85-5.07,3.69-10.1,5.59-15.28m-49.44,14.52c1.36,0,2.68-.04,3.99,0,1.93.07,3.48.93,4.68,2.41.4.48.79.96,1.13,1.47,2.91,4.27,5.82,8.53,8.7,12.81.21.32.44.43.81.43,2.95-.01,5.9-.01,8.85-.01h.57c-.4-.62-.73-1.18-1.08-1.71-2.3-3.59-4.56-7.19-6.9-10.77-1.49-2.3-3.51-4.08-5.86-5.48-.09-.05-.17-.12-.29-.21.71-.15,1.36-.27,2-.44,2.75-.71,5.19-1.95,6.82-4.38,2.24-3.31,2.51-6.95,1.32-10.66-1.23-3.8-3.83-6.19-7.82-6.97-2.28-.44-4.59-.59-6.91-.59-5.95-.01-11.9,0-17.85,0-.16,0-.31.01-.47.03v41.15h8.3v-17.08Zm-.03-16.63c0-.43.13-.53.53-.52,3.68.03,7.37.04,11.05.07,1.19,0,2.32.27,3.31.95,1.61,1.12,2.1,2.76,1.95,4.6-.24,2.82-1.89,4.48-4.75,4.62-3.23.16-6.46.16-9.69.23-.79.01-1.56,0-2.36,0-.01-.2-.03-.35-.03-.49,0-3.15,0-6.3-.01-9.45m-41.59,16.63c1.37,0,2.68-.04,4,0,1.95.07,3.51.95,4.72,2.45.56.69,1.12,1.4,1.63,2.15,2.74,4.03,5.47,8.07,8.19,12.12.2.28.39.4.72.4,2.99-.01,5.96-.01,8.95-.01.15,0,.31-.01.52-.03-.41-.67-.79-1.26-1.16-1.84-2.25-3.52-4.47-7.06-6.76-10.55-1.51-2.34-3.54-4.15-5.92-5.55-.08-.05-.16-.12-.27-.2.69-.15,1.35-.27,2-.43,2.76-.72,5.22-1.98,6.85-4.42,2.21-3.31,2.48-6.92,1.29-10.62-1.21-3.8-3.82-6.2-7.81-6.98-2.32-.45-4.66-.59-7-.59-5.92-.01-11.83,0-17.75,0h-.48v41.18h8.27v-17.08Zm.03-17.15h.52c3.63.03,7.26.04,10.9.05,1.23.01,2.39.24,3.42.95,1.63,1.12,2.12,2.78,1.96,4.63-.24,2.81-1.89,4.47-4.76,4.6-3.48.16-6.96.16-10.45.23-.51.01-1.03,0-1.59,0v-10.46Zm-5.75,61.12l-6.19-3.22-2.91,5.54,6.27,3.22,2.83-5.54Zm-17.88,5.77l6.3,3.24,2.87-5.46-6.19-3.28-2.97,5.5Zm-306.92-5.77l-6.19-3.22-2.91,5.54,6.27,3.22,2.83-5.54Zm-17.88,5.77l6.3,3.24,2.87-5.46-6.19-3.28-2.97,5.5Zm333.02-39.58h-23.02v-11.25h20.66v-6.94h-20.64v-9.14h22.18v-6.91h-30.49v41.15h31.31v-6.91Zm-27.09,44.37c-.63-5.05-1.15-9.02-1.55-11.92-.59,1.15-1.2,2.36-1.85,3.67-.65,1.29-1.23,2.51-1.74,3.63.43,3.25.83,6.45,1.19,9.58.57,5.18,1.08,10.14,1.51,14.88.41,4.76.63,8.46.63,11.1,0,.33-.04.99-.09,1.95-.07.97-.13,1.83-.21,2.56l.68.39c1.28-2.21,2.11-3.83,2.5-4.86.73-1.91,1.11-3.88,1.11-5.92,0-2.56-.24-6.38-.7-11.42-.36-4.04-.84-8.59-1.47-13.63m-13.44-2.03c.28-.71.53-1.79.74-3.24.2-1.45.31-2.82.31-4.08-1.31-.51-2.59-1.03-3.86-1.54-1.67-.73-2.49-1.84-2.49-3.32l-.56-.41c-.61,1.44-1.08,2.94-1.38,4.48-.31,1.54-.46,3.19-.46,4.95l1.99.95,4.55,32.4h-66.54v-2.63c0-2.71-.56-5.15-1.68-7.34-.99-1.94-2.53-3.87-4.62-5.8l-2.17,5.99c1.71,1.9,3.03,3.72,3.96,5.51,1.17,2.21,1.76,4.33,1.76,6.34,0,2.35-1.13,4.98-3.4,7.89-2.27,2.92-5,5.34-8.21,7.25-3.55,2.08-6.94,3.12-10.21,3.12-1.47,0-3.12-.16-4.95-.51-1.82-.35-3.56-.68-5.25-1.01l-.65,1.52c1.81.69,3.63,1.39,5.47,2.07,2.16.82,4.02,1.41,5.58,1.8,2.03.51,3.94.76,5.68.76,1.91,0,4.35-.92,7.3-2.75,3.11-1.91,5.71-4.19,7.79-6.85,2.4-3,3.59-5.9,3.59-8.71h70.4v-7.49l-4.51-29.94,1.83.6Zm-18.5-42.23h-23.15v-11.32h20.78v-7.02h-20.78v-9.2h22.32v-6.96h-30.7v41.44h31.53v-6.95Zm-72.66-1.84c1.15,4.34,4.07,7.03,8.19,8.51,1.99.72,4.08.87,6.18.96,2.75.12,5.48.07,8.15-.67,5.16-1.44,8.5-4.8,9.26-10.25.4-2.88.47-5.79.47-8.69.01-7.34.01-14.68.01-22v-.52h-8.37v.61c0,7.54.03,15.08-.01,22.6-.01,2.07-.1,4.14-.29,6.19-.24,2.59-1.71,4.31-4.16,5.12-1.91.64-3.87.61-5.83.28-3.03-.51-5.22-2.61-5.74-5.63-.2-1.23-.25-2.49-.25-3.75-.03-8.26-.03-16.52-.03-24.78v-.64h-8.42v.63c0,3.31-.01,6.62,0,9.93.01,5.15.03,10.3.09,15.45.03,2.23.18,4.47.75,6.63m-2.84,73.72h-2.3c-1.1-.23-3.19-1.72-6.27-4.51-3.96-3.56-6.83-5.98-8.59-7.26-3.54-2.53-6.61-3.82-9.21-3.82s-4.84.83-6.56,2.48c-1.2,1.15-2.17,2.67-2.91,4.55,1.32-.17,2.63-.27,3.94-.27,2.11,0,4.2.36,6.26,1.07,1.84.64,3.87,1.66,6.08,3.06,1.77,1.12,3.96,2.69,6.56,4.7l-74.57.25c0-1.8-.7-4.16-2.1-7.04-1.04-2.15-2.44-4.55-4.2-7.23-1.71.41-3.58,1.36-5.62,2.83-2.27,1.66-4.18,3.6-5.72,5.84-1.15,1.67-2.43,2.95-3.83,3.87-1.8,1.16-3.87,1.75-6.18,1.75h-59.05c-.84,0-1.66-1.32-2.44-3.98-.52-1.72-1.08-4.4-1.72-8.02l-1.15-6.57c-.36-1.59-.67-3.11-.93-4.59-.27-1.47-.53-3-.79-4.58-.79.92-1.42,1.82-1.91,2.67-.59,1.07-.87,2.04-.87,2.91,0,.2.07.73.24,1.6.16.87.27,1.4.32,1.6-4.27,1.99-7.83,4.31-10.7,6.97-2.84,2.67-4.27,5.1-4.27,7.28,0,.61.97,1.11,2.92,1.52,1.95.39,4.39.59,7.31.59,1.29,0,2.54-.4,3.71-1.19,1.18-.79,2.14-1.9,2.91-3.32.63,3.7,1.47,6.7,2.52,9.05,1.4,3.14,3.01,4.7,4.84,4.7h59.16c2.96,0,5.2-.35,6.74-1.04,1.55-.71,3.05-1.96,4.54-3.76,1.88,1.55,4.06,2.78,6.53,3.67,2.15.76,4.07,1.13,5.78,1.13h3.96s87.57-.27,87.57-.27v-6.64Zm-186.49-7.75c-1.24,0-2.23-.07-2.95-.19-.71-.13-1.33-.31-1.87-.53.87-1.41,1.93-2.53,3.2-3.39,1.28-.84,3.03-1.68,5.24-2.46l.72,4.15c-1.37,1.6-2.82,2.41-4.35,2.41m94.18,7.64c-1.47-.18-3.04-.67-4.71-1.45-1.67-.79-2.96-1.68-3.88-2.68.76-1.27,1.43-2.18,1.99-2.71.84-.84,1.87-1.41,3.1-1.72.97,1.28,1.75,2.51,2.33,3.71.68,1.43,1.19,2.88,1.52,4.35l-.35.51Zm58.31-65.99c2.55,1.18,5.24,1.68,8.03,1.84,3.54.2,6.97-.21,10.26-1.55.31-.12.53-.09.83.09,1.59,1.08,3.19,2.16,4.82,3.2,1.24.8,2.62,1.32,4.06,1.76,1.04-1.98,2.05-3.94,3.08-5.91-2.41-.88-4.63-2.02-6.68-3.5.16-.21.31-.39.45-.57,1.07-1.32,1.99-2.75,2.67-4.3,1.07-2.41,1.63-4.96,1.85-7.59.33-4,.13-7.98-1.15-11.84-1.72-5.22-5.04-9.03-10.18-11.11-4.78-1.92-9.71-2.03-14.66-.83-5.38,1.31-9.33,4.48-11.81,9.45-1.27,2.55-1.89,5.26-2.15,8.07-.36,4.11-.16,8.18,1.17,12.13,1.63,4.87,4.72,8.47,9.41,10.65m-.93-26.78c1.68-4.78,6.02-7.53,11.61-7.02,4.58.41,8.22,3.39,9.43,8.19,1.13,4.47,1.11,8.94-.44,13.33-.45,1.27-1.13,2.41-2.03,3.47-2.43-1.8-5-3.24-7.89-4.24-.8,1.61-1.57,3.16-2.31,4.67,1.71.87,3.4,1.72,5.08,2.58-.01.05-.03.12-.05.17-1.33.49-2.71.63-4.14.55-4.62-.27-8.26-3.43-9.49-7.74-1.33-4.66-1.4-9.37.21-13.96m-16.12-13.48h-8.31v41.43h8.31V22.49Zm-42.07,14.46c.16.25.25.4.36.55,5.35,8.66,10.7,17.32,16.04,25.98.23.36.46.48.88.48,2.43-.03,4.87-.01,7.3-.01h.52V22.48h-7.78v27.43s-.08.01-.12.03c-.1-.18-.21-.35-.32-.52-5.42-8.85-10.85-17.69-16.27-26.55-.19-.31-.37-.43-.75-.43-2.38.03-4.76.01-7.15.01-.16,0-.32.01-.47.03v41.43h7.75v-26.95Zm-15.92-14.49h-8.3v41.46h8.3V22.47Zm-14.12,34.48h-20.8V22.77h-8.35v41.14h29.15v-6.96Zm-71.84-6.08c1.27,4.95,4.1,8.79,8.53,11.41,2.54,1.49,5.31,2.19,8.23,2.33,3.23.16,6.36-.21,9.34-1.53,3.95-1.75,6.48-4.82,8.1-8.74.4-.97.72-2,1.1-3.04-2.77-.88-5.47-1.73-8.18-2.59-.07.27-.12.47-.17.65-.45,1.74-1.08,3.39-2.17,4.82-2.26,2.98-6.15,4.11-9.95,2.86-3.31-1.08-5.28-3.46-6.19-6.74-1.13-4.15-1.16-8.35-.43-12.57.32-1.89.95-3.71,2.17-5.23,2.12-2.66,4.95-3.69,8.3-3.58,3.58.12,6.62,2.33,7.81,5.74.13.39.24.79.37,1.2,2.77-.67,5.51-1.32,8.29-1.99-.13-.4-.23-.75-.35-1.1-1.63-5.08-4.95-8.51-10.05-10.14-3.46-1.11-6.99-1.15-10.54-.51-3.22.59-6.07,1.96-8.53,4.15-3.83,3.41-5.64,7.82-6.3,12.78-.13,1.01-.21,2.03-.32,3.04v2.92c.04.17.07.33.09.49.28,1.79.41,3.6.85,5.35"/>
    </g>
  </g>
</svg>